<?xml version="1.0" encoding="UTF-8"?>
<svg version="1.1" xmlns="http://www.w3.org/2000/svg" width="500" height="500">
<path d="M0 0 C3.82634267 1.47378147 5.13442273 3.36443342 7.13671875 6.8828125 C7.99547607 8.37409668 7.99547607 8.37409668 8.87158203 9.89550781 C9.47083496 10.96124023 10.07008789 12.02697266 10.6875 13.125 C11.31253418 14.21651367 11.93756836 15.30802734 12.58154297 16.43261719 C16.31919631 22.97375181 20.00193093 29.54622806 23.67114258 36.12597656 C29.95783416 47.34530308 36.71806448 58.2983643 43.4543457 69.25146484 C47.30116254 75.50923562 51.06813616 81.76609319 54.51953125 88.25390625 C56.41288551 91.7658536 58.39049957 95.22645483 60.375 98.6875 C60.73360107 99.31301758 61.09220215 99.93853516 61.46166992 100.58300781 C62.30691446 102.05583558 63.15332725 103.5279928 64 105 C66.10161993 102.30053838 67.87847882 99.58405906 69.5234375 96.5859375 C69.9875 95.74160156 70.4515625 94.89726562 70.9296875 94.02734375 C71.40664063 93.15207031 71.88359375 92.27679688 72.375 91.375 C72.84421875 90.52292969 73.3134375 89.67085938 73.796875 88.79296875 C76.57948159 83.71202136 79.23617604 78.58379421 81.80761719 73.39306641 C83.63095428 69.73369904 85.52761923 66.1147654 87.4375 62.5 C87.79392578 61.81808594 88.15035156 61.13617188 88.51757812 60.43359375 C89.24015081 59.06518175 89.98592365 57.70871294 90.75679016 56.36691284 C92.06730687 54.02001319 92.06730687 54.02001319 92.8782196 51.42263794 C94.2098023 48.19234297 95.36711722 46.32836518 98 44 C104.30702738 42.53988257 110.52229105 42.83577498 116.9609375 43.0234375 C118.83562443 43.0420997 120.7103603 43.05632916 122.58511353 43.0663147 C127.50852223 43.10441332 132.42895848 43.20256072 137.35119629 43.31335449 C142.37825302 43.4158398 147.40579243 43.46136301 152.43359375 43.51171875 C162.29036527 43.61881722 172.14493505 43.78937883 182 44 C181.39750229 47.21125177 180.78999984 49.76997371 179.14453125 52.6015625 C178.76876953 53.25769531 178.39300781 53.91382813 178.00585938 54.58984375 C177.41514648 55.59724609 177.41514648 55.59724609 176.8125 56.625 C176.04726844 57.94999647 175.28296565 59.27552973 174.51953125 60.6015625 C173.91298706 61.6534375 173.91298706 61.6534375 173.29418945 62.7265625 C168.89827556 70.44864327 164.76301729 78.3154857 160.59545898 86.16210938 C155.55229527 95.65014227 150.50213441 105.09707943 144.86010742 114.24731445 C142.15445866 118.65702341 139.84912278 123.18985948 137.58984375 127.83984375 C132.71295134 137.53371589 127.09329628 146.86697773 121.60546875 156.22265625 C119.55813125 159.76440069 117.60902366 163.35442681 115.6640625 166.953125 C113.64256956 170.65445011 111.57297823 174.32733996 109.5 178 C104.70310005 186.51190382 100.00729382 195.06561091 95.47753906 203.72314453 C89.36629819 215.39741882 83.02081506 226.90765152 76.3125 238.25 C74.09710395 242.0217498 72.05151451 245.82307727 70.125 249.75 C67.50931761 255.07773202 64.66140158 260.23222827 61.72998047 265.3894043 C58.50235434 271.07778106 55.36788824 276.81335385 52.25 282.5625 C47.55041373 291.21725807 42.7386531 299.80261237 37.87182617 308.36425781 C33.53192512 316.01562263 29.30184383 323.72300874 25.1328125 331.46875 C22.81825749 335.75034893 20.43978961 339.96627957 17.91015625 344.125 C15.33124112 348.38068916 13.04032621 352.70981925 10.875 357.1875 C8.4166473 362.23748959 5.83198922 367.14785847 3 372 C1.68 372 0.36 372 -1 372 C-1.31638428 371.38705078 -1.63276855 370.77410156 -1.95874023 370.14257812 C-10.00363037 354.57952063 -18.26666515 339.20896036 -27.19921875 324.13671875 C-29.87948772 319.46805067 -32.43349553 314.73193088 -35 310 C-43.0652398 295.08833355 -43.0652398 295.08833355 -51.375 280.3125 C-55.93416027 272.39002478 -60.28504971 264.37505196 -64.52246094 256.27661133 C-68.31124867 249.03962523 -72.15641203 241.85009533 -76.19165039 234.74755859 C-79.75179407 228.47192235 -83.23095442 222.15233309 -86.70849609 215.83068848 C-92.62679764 205.07272567 -98.59106177 194.34393619 -104.66308594 183.67163086 C-107.69442646 178.33858642 -110.66077485 172.97462088 -113.58935547 167.58447266 C-115.52566415 164.03691923 -117.50885434 160.51696924 -119.5 157 C-122.51448673 151.65933435 -125.48320948 146.29763585 -128.40625 140.90625 C-130.75949921 136.61503086 -133.16693905 132.35459135 -135.578125 128.09570312 C-140.54759873 119.30009472 -145.32731213 110.40196115 -150.09960938 101.49829102 C-155.07041057 92.22862173 -160.06704045 82.98818177 -165.33984375 73.88671875 C-167.45601546 70.20706958 -169.47013168 66.47651133 -171.48046875 62.73828125 C-173.76009933 58.63025803 -176.21820796 54.63014247 -178.6796875 50.62890625 C-180 48 -180 48 -180 44 C-169.15184558 43.76815465 -158.30428154 43.59054731 -147.45415306 43.48187828 C-142.41564733 43.42971686 -137.37883788 43.35899431 -132.34130859 43.24560547 C-127.47822082 43.13682997 -122.61676249 43.07713591 -117.75255203 43.05122757 C-115.89838625 43.03276965 -114.04430841 42.99672118 -112.19083786 42.94269943 C-97.64202714 42.53557764 -97.64202714 42.53557764 -93.55448914 46.18099976 C-91.9790719 48.76257729 -90.93912551 51.13389651 -90 54 C-89.45472656 55.04929688 -88.90945312 56.09859375 -88.34765625 57.1796875 C-87.92355469 58.06914062 -87.49945313 58.95859375 -87.0625 59.875 C-85.06958296 63.94365661 -82.94884975 67.86110858 -80.625 71.75 C-77.45690509 77.08610688 -74.66725322 82.54943565 -71.92822266 88.11230469 C-69.10836542 93.82954101 -66.11208033 99.43597759 -63 105 C-60.61413575 101.95768609 -58.65833522 98.80539567 -56.7421875 95.44921875 C-56.12134277 94.36608398 -55.50049805 93.28294922 -54.86083984 92.16699219 C-54.37463165 91.31494202 -54.37463165 91.31494202 -53.87860107 90.44567871 C-49.44321937 82.67546614 -45.00613849 74.9056461 -40.375 67.25 C-35.03819428 58.42741414 -29.8063691 49.54321582 -24.56933594 40.66113281 C-23.12285532 38.20832654 -21.67487776 35.75641072 -20.2265625 33.3046875 C-15.67564273 25.59261892 -11.18150199 17.85437056 -6.7890625 10.05078125 C-2.16408669 2.16408669 -2.16408669 2.16408669 0 0 Z M-44.25 131.5 C-45.30960938 131.91765625 -45.30960938 131.91765625 -46.390625 132.34375 C-46.92171875 132.5603125 -47.4528125 132.776875 -48 133 C-46.75842158 135.73328064 -45.50717108 138.46140029 -44.25 141.1875 C-43.90195313 141.95642578 -43.55390625 142.72535156 -43.1953125 143.51757812 C-42.84726563 144.26845703 -42.49921875 145.01933594 -42.140625 145.79296875 C-41.82641602 146.4789917 -41.51220703 147.16501465 -41.18847656 147.87182617 C-39.73345565 150.61450969 -39.73345565 150.61450969 -36 155 C-36 146.75 -36 138.5 -36 130 C-39.55046666 130 -41.10239242 130.24095697 -44.25 131.5 Z M38 130 C37.80306008 132.66626359 37.61725218 135.33256639 37.4375 138 C37.38142578 138.74378906 37.32535156 139.48757812 37.26757812 140.25390625 C36.93652715 145.33002118 37.22836955 149.97011262 38 155 C41.38068391 153.30965805 42.40335188 149.53585554 44 146.25 C44.35578125 145.53328125 44.7115625 144.8165625 45.078125 144.078125 C46.87222274 140.43637436 48.56329878 136.80127198 50 133 C48.75336669 132.49166409 47.50250613 131.99368855 46.25 131.5 C45.20585937 131.08234375 45.20585937 131.08234375 44.140625 130.65625 C41.73577305 129.80459673 41.73577305 129.80459673 38 130 Z " fill="#252525" transform="translate(249,70)"/>
<path d="M0 0 C15.18 0 30.36 0 46 0 C51.875 10.8125 51.875 10.8125 53.71826172 14.21020508 C54.20053223 15.09603271 54.68280273 15.98186035 55.1796875 16.89453125 C55.67194824 17.80050049 56.16420898 18.70646973 56.67138672 19.63989258 C57.70311696 21.47262618 58.83336384 23.25004576 60 25 C60 26.32 60 27.64 60 29 C60.66 29 61.32 29 62 29 C62.35715088 29.69448242 62.71430176 30.38896484 63.08227539 31.10449219 C64.73903252 34.3213823 66.40074204 37.53569051 68.0625 40.75 C68.62388672 41.84183594 69.18527344 42.93367188 69.76367188 44.05859375 C73.1553668 50.60941023 76.71983434 57.01390035 80.47094727 63.36523438 C82.27894015 66.48065179 83.8788896 69.62823237 85.4375 72.875 C87.86323576 77.81388543 90.42938938 82.61448697 93.1875 87.375 C101 100.88081984 101 100.88081984 101 105 C101.66 105 102.32 105 103 105 C103.28609131 105.55236328 103.57218262 106.10472656 103.86694336 106.67382812 C108.68288595 115.95766555 113.49534206 125.23226099 118.6875 134.3125 C121.8899525 139.92292215 124.84277651 145.61099386 127.68676758 151.41015625 C130.92665942 157.96163659 134.39298789 164.38710849 137.875 170.8125 C138.44702148 171.86953125 139.01904297 172.9265625 139.60839844 174.015625 C142.6396778 179.60596157 142.6396778 179.60596157 146 185 C146 186.32 146 187.64 146 189 C146.66 189 147.32 189 148 189 C148.67154933 190.28913487 149.33708859 191.58140204 150 192.875 C150.37125 193.59429687 150.7425 194.31359375 151.125 195.0546875 C152 197 152 197 152 199 C152.66 199 153.32 199 154 199 C154.22429687 198.21367187 154.44859375 197.42734375 154.6796875 196.6171875 C156.40996423 191.87684356 158.73873891 187.56331194 161.125 183.125 C161.59292969 182.24585938 162.06085938 181.36671875 162.54296875 180.4609375 C163.6912093 178.30505729 164.84363903 176.15153223 166 174 C166.66 174 167.32 174 168 174 C168.11843262 173.26515381 168.23686523 172.53030762 168.35888672 171.77319336 C168.99708959 169.01258922 169.8634868 167.08004448 171.2578125 164.62890625 C171.71510742 163.81421875 172.17240234 162.99953125 172.64355469 162.16015625 C173.13243164 161.30292969 173.62130859 160.44570313 174.125 159.5625 C177.47117026 153.60031155 180.74440992 147.64155964 183.75 141.5 C185.8278884 137.26525357 188.02105109 133.17594582 190.4375 129.125 C194.70852526 121.95820024 198.33601624 114.48882534 202 107 C202.33 106.34 202.66 105.68 203 105 C203.66 105 204.32 105 205 105 C205.07992187 104.32839844 205.15984375 103.65679687 205.2421875 102.96484375 C206.2278538 99.10855135 208.11978525 95.958971 210.125 92.5625 C213.12944474 87.36116704 215.98413148 82.14577455 218.625 76.75 C221.26121613 71.3799301 224.124722 66.2236291 227.2265625 61.109375 C229.17851339 57.68701176 230.91389 54.18916234 232.66113281 50.65917969 C234.85658587 46.29869925 237.21077678 42.02764261 239.5625 37.75 C240.61330837 35.83074402 241.66408874 33.9114727 242.71484375 31.9921875 C243.52091064 30.52217285 243.52091064 30.52217285 244.34326172 29.02246094 C247.10928648 23.97627961 249.86744482 18.92581306 252.625 13.875 C253.13361572 12.94526367 253.64223145 12.01552734 254.16625977 11.05761719 C254.63990967 10.19040039 255.11355957 9.32318359 255.6015625 8.4296875 C256.01744629 7.66897949 256.43333008 6.90827148 256.86181641 6.12451172 C257.94508431 4.10250458 258.97413624 2.05172751 260 0 C275.18 0 290.36 0 306 0 C305.09229618 3.63081527 304.02911854 6.055289 302.26171875 9.3046875 C301.69477295 10.35221191 301.12782715 11.39973633 300.54370117 12.47900391 C299.93115479 13.59968262 299.3186084 14.72036133 298.6875 15.875 C298.05884033 17.03306152 297.43018066 18.19112305 296.7824707 19.38427734 C295.48653305 21.77130791 294.18785314 24.15681383 292.88671875 26.54101562 C291.15966837 29.70727466 289.43809892 32.87642939 287.71875 36.046875 C272.96513594 63.22051576 272.96513594 63.22051576 266.875 73.125 C264.6602808 76.76604651 262.74303513 80.48212989 260.875 84.3125 C256.4610298 93.28724651 251.42476278 101.89631777 246.41748047 110.54980469 C240.02483433 121.59985579 233.77853957 132.71371445 227.83325195 144.01171875 C221.94088628 155.20131237 215.82879201 166.24863177 209.375 177.125 C206.94633832 181.25818111 204.74163181 185.44877114 202.625 189.75 C197.84322774 199.4639823 192.54516084 208.90153837 186.875 218.125 C184.25219061 222.43646749 182.02645097 226.89869779 179.80273438 231.42651367 C176.16238177 238.78257027 172.06735093 245.87423113 168 253 C166.25839873 256.0567928 164.51857733 259.11457077 162.78173828 262.17407227 C161.60822844 264.24114119 160.43218388 266.30677349 159.25341797 268.37084961 C158.71604004 269.31710205 158.17866211 270.26335449 157.625 271.23828125 C157.14289063 272.08430908 156.66078125 272.93033691 156.1640625 273.80200195 C154.88442031 276.07249746 154.88442031 276.07249746 154 279 C153.34 279 152.68 279 152 279 C151.46826172 277.88431641 151.46826172 277.88431641 150.92578125 276.74609375 C146.57036523 267.81379988 141.76611588 259.18123343 136.84448242 250.54931641 C133.69008346 245.0105723 130.59173314 239.45399733 127.625 233.8125 C124.76585004 228.38852433 121.75277187 223.08447189 118.63671875 217.8046875 C116.59211463 214.30104607 114.65724133 210.74521786 112.73046875 207.17578125 C111.37309713 204.68471325 110.00003621 202.20515115 108.61328125 199.73046875 C101.03993556 186.20949935 101.03993556 186.20949935 97.9375 179.875 C94.63011665 173.13053199 90.90313625 166.63959174 87.19433594 160.11083984 C85.23469345 156.6474161 83.30462586 153.167711 81.375 149.6875 C80.53776934 148.17838047 79.70052932 146.66926613 78.86328125 145.16015625 C78.41291504 144.34820801 77.96254883 143.53625977 77.49853516 142.69970703 C75.80668804 139.65173612 74.11245554 136.60509794 72.41796875 133.55859375 C71.13274828 131.24743151 69.84757769 128.93624162 68.5625 126.625 C68.2410199 126.04687561 67.91953979 125.46875122 67.58831787 124.87310791 C63.36822995 117.28256972 59.17229321 109.67939501 55 102.0625 C51.60076608 95.85929822 48.12069808 89.72028919 44.53125 83.625 C40.65794902 76.98505546 37.09049664 70.18154011 33.52563477 63.37280273 C28.63986311 54.04542048 23.6217681 44.80559686 18.47021484 35.62255859 C16.76440512 32.57974756 15.06380837 29.53404758 13.36328125 26.48828125 C12.0965072 24.22126865 10.82958094 21.95434109 9.5625 19.6875 C8.65709473 18.06690674 8.65709473 18.06690674 7.73339844 16.41357422 C7.16266602 15.39408691 6.59193359 14.37459961 6.00390625 13.32421875 C5.49674072 12.41760498 4.9895752 11.51099121 4.46704102 10.5769043 C3.46087176 8.80953593 2.40613025 7.06920602 1.31225586 5.35473633 C0 3 0 3 0 0 Z " fill="#FCFCFC" transform="translate(97,130)"/>
<path d="M0 0 C0.66 0 1.32 0 2 0 C3.48266602 2.20532227 3.48266602 2.20532227 5.19140625 5.25390625 C6.12557373 6.90156982 6.12557373 6.90156982 7.07861328 8.58251953 C7.7126709 9.71028809 8.34672852 10.83805664 9 12 C10.15146804 13.99029856 11.3063124 15.97864836 12.46484375 17.96484375 C13.03332031 18.94300049 13.60179687 19.92115723 14.1875 20.92895508 C19.14210382 29.44675403 24.13680843 37.92004094 29.3515625 46.28125 C30.95049555 48.91835285 32.42600424 51.59062952 33.875 54.3125 C36.80131417 59.78728009 40.07258416 65.0170711 43.39794922 70.25512695 C51 82.24736958 51 82.24736958 51 85 C40.93079502 82.986159 30.98507038 80.39641689 21 78 C21 99.78 21 121.56 21 144 C7.8 144 -5.4 144 -19 144 C-19 122.22 -19 100.44 -19 78 C-27.91 80.31 -36.82 82.62 -46 85 C-46.99 85 -47.98 85 -49 85 C-47.34509281 80.33534403 -44.91087541 76.28499423 -42.375 72.0625 C-41.46278557 70.52909538 -40.55133631 68.99523532 -39.640625 67.4609375 C-39.19009766 66.70264648 -38.73957031 65.94435547 -38.27539062 65.16308594 C-36.52284105 62.19072966 -34.82312113 59.19131931 -33.125 56.1875 C-26.54378949 44.62375359 -19.64744563 33.23798723 -12.625 21.9375 C-9.68566932 17.18935044 -6.9468854 12.36721153 -4.32421875 7.4375 C-1.53852069 2.3098434 -1.53852069 2.3098434 0 0 Z " fill="#FCFCFC" transform="translate(249,101)"/>
<path d="M0 0 C12.54 0 25.08 0 38 0 C37.19303941 4.03480295 36.55721742 6.22206202 34.70703125 9.6953125 C34.24401611 10.5716333 33.78100098 11.4479541 33.30395508 12.35083008 C32.56568481 13.72404419 32.56568481 13.72404419 31.8125 15.125 C31.31580811 16.06045654 30.81911621 16.99591309 30.30737305 17.9597168 C28.87927337 20.64402174 27.44211566 23.32320343 26 26 C25.63519531 26.67724121 25.27039063 27.35448242 24.89453125 28.05224609 C23.27888416 31.04366614 21.64992628 34.027348 20 37 C19.34 37 18.68 37 18 37 C18 36.01 18 35.02 18 34 C17.34 34 16.68 34 16 34 C15.50371094 33.00742187 15.00742188 32.01484375 14.49609375 30.9921875 C14.17068604 30.3415332 13.84527832 29.69087891 13.51000977 29.02050781 C12.78992598 27.58001242 12.07036937 26.13925339 11.35131836 24.69824219 C9.56139246 21.11287444 7.76498373 17.53131283 5.9453125 13.9609375 C5.46880249 13.02145264 5.46880249 13.02145264 4.98266602 12.06298828 C4.10693206 10.33754377 3.22739494 8.61403109 2.34765625 6.890625 C1 4 1 4 0 0 Z " fill="#C9123A" transform="translate(231,260)"/>
<path d="M0 0 C1.44791511 0.00502748 2.89583192 0.00958817 4.34375 0.01367188 C7.85420259 0.02457295 11.36459007 0.04176798 14.875 0.0625 C14.44948104 1.98186213 14.00908062 3.89792874 13.5625 5.8125 C13.31886719 6.87984375 13.07523437 7.9471875 12.82421875 9.046875 C11.89308234 12.00505322 10.9937659 13.81846002 8.875 16.0625 C8.215 16.0625 7.555 16.0625 6.875 16.0625 C8.41128993 10.94153356 10.4026637 7.00717261 12.875 2.0625 C0.335 2.0625 -12.205 2.0625 -25.125 2.0625 C-20.26074544 11.82364603 -20.26074544 11.82364603 -15.0078125 21.3203125 C-14.125 23.0625 -14.125 23.0625 -14.125 25.0625 C-15.115 24.7325 -16.105 24.4025 -17.125 24.0625 C-17.125 23.0725 -17.125 22.0825 -17.125 21.0625 C-18.115 20.7325 -19.105 20.4025 -20.125 20.0625 C-21.22265625 18.171875 -21.22265625 18.171875 -22.1875 15.8125 C-22.52394531 14.9978125 -22.86039063 14.183125 -23.20703125 13.34375 C-23.50996094 12.5909375 -23.81289062 11.838125 -24.125 11.0625 C-24.74375 9.70125 -24.74375 9.70125 -25.375 8.3125 C-26.22005879 5.77732362 -26.17775518 3.71784392 -26.125 1.0625 C-17.42286393 -0.10031933 -8.75711849 -0.05329895 0 0 Z " fill="#541723" transform="translate(256.125,257.9375)"/>
<path d="M0 0 C27.72 0 55.44 0 84 0 C83.67 1.65 83.34 3.3 83 5 C82.505 4.01 82.505 4.01 82 3 C82.33 2.34 82.66 1.68 83 1 C72.50782117 1.06118914 62.01589153 1.13827947 51.523983 1.23571491 C46.65223593 1.28045685 41.78057323 1.31970452 36.90869141 1.34643555 C32.20770335 1.3724304 27.50703929 1.41280564 22.80625153 1.46318626 C21.01213865 1.47988085 19.21796969 1.49137897 17.42378998 1.49761391 C14.91206333 1.50722692 12.40117043 1.5352518 9.88964844 1.56762695 C8.77510536 1.56547432 8.77510536 1.56547432 7.63804626 1.5632782 C3.4876255 1.6390208 1.01497491 2.05289225 -2 5 C-1.34 3.35 -0.68 1.7 0 0 Z " fill="#121212" transform="translate(347,114)"/>
<path d="M0 0 C1 2 1 2 0.22265625 4.3828125 C-0.35162109 5.74019531 -0.35162109 5.74019531 -0.9375 7.125 C-1.31777344 8.03507812 -1.69804687 8.94515625 -2.08984375 9.8828125 C-2.39019531 10.58148438 -2.69054687 11.28015625 -3 12 C-3.66 12 -4.32 12 -5 12 C-5.12375 13.0209375 -5.12375 13.0209375 -5.25 14.0625 C-6.22332528 17.8746907 -7.95807455 20.64070329 -10 24 C-12.51622809 23.62444357 -13.71610036 23.31374354 -15.44921875 21.3984375 C-18.24171707 16.83530144 -19.66526699 13.35572817 -20 8 C-17.03947516 11.36423277 -16.07710178 14.69159287 -15 19 C-14.34 19 -13.68 19 -13 19 C-13 19.99 -13 20.98 -13 22 C-12.34 22 -11.68 22 -11 22 C-10.7421875 21.13632812 -10.484375 20.27265625 -10.21875 19.3828125 C-8.9679515 15.91104486 -7.40447007 13.03028729 -5.5 9.875 C-3.54967346 6.62721047 -1.6357325 3.41868093 0 0 Z " fill="#471921" transform="translate(262,275)"/>
<path d="M0 0 C1 3 1 3 0.30322266 4.77758789 C-0.0727002 5.41946045 -0.44862305 6.06133301 -0.8359375 6.72265625 C-1.24070312 7.42583984 -1.64546875 8.12902344 -2.0625 8.85351562 C-2.495625 9.58248047 -2.92875 10.31144531 -3.375 11.0625 C-4.21621265 12.51167997 -5.05736143 13.96089701 -5.8984375 15.41015625 C-6.27661621 16.05090088 -6.65479492 16.69164551 -7.04443359 17.35180664 C-7.73647339 18.54546037 -8.38295408 19.76590817 -9 21 C-9.66 21 -10.32 21 -11 21 C-11 20.01 -11 19.02 -11 18 C-11.66 18 -12.32 18 -13 18 C-13.69965443 16.73581754 -14.38434763 15.46334598 -15.0625 14.1875 C-15.44535156 13.47980469 -15.82820312 12.77210938 -16.22265625 12.04296875 C-17 10 -17 10 -16 7 C-15.16121545 8.28813342 -14.32913217 9.58063256 -13.5 10.875 C-13.0359375 11.59429687 -12.571875 12.31359375 -12.09375 13.0546875 C-11 15 -11 15 -11 17 C-10.34 17 -9.68 17 -9 17 C-9 16.01 -9 15.02 -9 14 C-8.34 14 -7.68 14 -7 14 C-6.71125 12.948125 -6.4225 11.89625 -6.125 10.8125 C-3.65306122 2.43537415 -3.65306122 2.43537415 0 0 Z " fill="#9F1E3C" transform="translate(260,276)"/>
<path d="M0 0 C12.54 0 25.08 0 38 0 C36.97038242 5.14808788 35.65675751 7.62920538 33 12 C32.375 10.125 32.375 10.125 32 8 C32.66 7.34 33.32 6.68 34 6 C34.33 4.68 34.66 3.36 35 2 C23.78 1.67 12.56 1.34 1 1 C0.67 1.66 0.34 2.32 0 3 C0 2.01 0 1.02 0 0 Z " fill="#A11F3C" transform="translate(231,260)"/>
<path d="M0 0 C10.23 0 20.46 0 31 0 C28 12 28 12 25 16 C24.34 16 23.68 16 23 16 C24.2322535 11.92408457 25.80380027 8.6285039 28 5 C28.33 3.68 28.66 2.36 29 1 C19.43 1 9.86 1 0 1 C0 0.67 0 0.34 0 0 Z " fill="#371B1F" transform="translate(240,258)"/>
<path d="M0 0 C1.65 0.33 3.3 0.66 5 1 C4.54658132 2.27259511 4.08704773 3.54301243 3.625 4.8125 C3.36976563 5.52019531 3.11453125 6.22789062 2.8515625 6.95703125 C2 9 2 9 0 12 C-0.66 12 -1.32 12 -2 12 C-3.37494222 9.73538929 -4.07991957 8.54345306 -3.6875 5.875 C-3 4 -3 4 -2 2 C-1.34 2 -0.68 2 0 2 C0 1.34 0 0.68 0 0 Z " fill="#292929" transform="translate(251,317)"/>
<path d="M0 0 C5.61 0.33 11.22 0.66 17 1 C17 1.33 17 1.66 17 2 C15.96359375 1.96519531 14.9271875 1.93039063 13.859375 1.89453125 C12.48959958 1.86638518 11.11980659 1.83908589 9.75 1.8125 C9.06808594 1.78736328 8.38617188 1.76222656 7.68359375 1.73632812 C4.40800711 1.68862541 2.34651444 1.78914924 -0.484375 3.51171875 C-0.98453125 4.00285156 -1.4846875 4.49398437 -2 5 C-1.34 3.35 -0.68 1.7 0 0 Z " fill="#191919" transform="translate(347,114)"/>
<path d="M0 0 C1.2536419 3.51180455 0.77956527 5.33464859 -0.75 8.6875 C-1.09546875 9.47511719 -1.4409375 10.26273437 -1.796875 11.07421875 C-3 13 -3 13 -6 14 C-4.50829734 9.0276578 -2.39542583 4.58154261 0 0 Z " fill="#4F1823" transform="translate(269,260)"/>
<path d="M0 0 C0.66 0.33 1.32 0.66 2 1 C2 1.99 2 2.98 2 4 C1.34 4 0.68 4 0 4 C0 4.99 0 5.98 0 7 C-0.66 7 -1.32 7 -2 7 C-2 7.66 -2 8.32 -2 9 C-2.99 9.33 -3.98 9.66 -5 10 C-3.66511872 6.40608886 -2.03977277 3.24509304 0 0 Z " fill="#3A3A3A" transform="translate(285,345)"/>
<path d="M0 0 C1.65 0 3.3 0 5 0 C5 2.64 5 5.28 5 8 C2.27573689 5.64722731 1.1858237 3.37503669 0 0 Z " fill="#B2193C" transform="translate(233,265)"/>
<path d="M0 0 C1.98 0.66 3.96 1.32 6 2 C5.67 3.98 5.34 5.96 5 8 C2.27573689 5.64722731 1.1858237 3.37503669 0 0 Z " fill="#343535" transform="translate(225,283)"/>
<path d="M0 0 C1.65 0.33 3.3 0.66 5 1 C4.01 3.64 3.02 6.28 2 9 C1.67 8.01 1.34 7.02 1 6 C0.34 5.67 -0.32 5.34 -1 5 C0.32 4.67 1.64 4.34 3 4 C3 3.34 3 2.68 3 2 C1.02 2.99 1.02 2.99 -1 4 C-0.67 2.68 -0.34 1.36 0 0 Z " fill="#343434" transform="translate(251,317)"/>
<path d="M0 0 C2.97 0.495 2.97 0.495 6 1 C4.68 1.33 3.36 1.66 2 2 C2 4.97 2 7.94 2 11 C1.67 11 1.34 11 1 11 C0.67 7.37 0.34 3.74 0 0 Z " fill="#090809" transform="translate(285,198)"/>
</svg>
